<svg xmlns="http://www.w3.org/2000/svg" viewBox="0 0 256 256">
  <defs>
    <linearGradient id="frame" x1="0" x2="1" y1="0" y2="1">
      <stop offset="0%" stop-color="#0ea5e9" />
      <stop offset="55%" stop-color="#22c55e" />
      <stop offset="100%" stop-color="#8b5cf6" />
    </linearGradient>
    <radialGradient id="glow" cx="50%" cy="30%" r="70%">
      <stop offset="0%" stop-color="#ffffff" stop-opacity="0.18" />
      <stop offset="100%" stop-color="#ffffff" stop-opacity="0" />
    </radialGradient>
  </defs>

  <rect width="256" height="256" rx="56" fill="#020617" />
  <rect x="22" y="22" width="212" height="212" rx="46" fill="url(#frame)" opacity="0.16" />
  <rect x="38" y="38" width="180" height="180" rx="38" fill="url(#glow)" />

  <path
    d="M171 79c-11-12-25-18-43-18-28 0-47 14-47 34 0 46 74 21 74 59 0 18-16 31-40 31-18 0-34-7-48-22"
    fill="none"
    stroke="#f8fafc"
    stroke-linecap="round"
    stroke-linejoin="round"
    stroke-width="20"
  />

  <path
    d="M84 74c12-8 28-12 45-12 14 0 26 3 36 9"
    fill="none"
    stroke="#38bdf8"
    stroke-linecap="round"
    stroke-width="8"
  />

  <path
    d="M92 194h71"
    fill="none"
    stroke="#22c55e"
    stroke-linecap="round"
    stroke-width="10"
  />

  <circle cx="182" cy="177" r="8" fill="#38bdf8" />
</svg>
