<svg xmlns="http://www.w3.org/2000/svg" viewBox="0 0 256 256">
  <defs>
    <linearGradient id="g" x1="0" x2="1" y1="0" y2="1">
      <stop offset="0%" stop-color="#0ea5e9"/>
      <stop offset="100%" stop-color="#8b5cf6"/>
    </linearGradient>
  </defs>
  <rect width="256" height="256" rx="56" fill="#020617"/>
  <rect x="24" y="24" width="208" height="208" rx="44" fill="url(#g)" opacity="0.18"/>
  <path d="M86 88c12-12 25-18 40-18 19 0 35 10 44 27l-21 12c-5-9-12-14-23-14-8 0-15 3-21 9-6 6-9 13-9 24s3 18 9 24c6 6 13 9 21 9 11 0 18-5 23-14l21 12c-9 17-25 27-44 27-15 0-28-6-40-18s-18-26-18-40 6-28 18-40z" fill="#f8fafc"/>
  <path d="M104 206h48" stroke="#38bdf8" stroke-width="10" stroke-linecap="round"/>
</svg>
